<svg width="14" height="18" viewBox="0 0 14 18" fill="none" xmlns="http://www.w3.org/2000/svg">
<path d="M11.6932 9.60939C11.7017 8.94983 11.8768 8.30313 12.2024 7.72946C12.528 7.1558 12.9934 6.67381 13.5554 6.32835C13.1984 5.81853 12.7275 5.39897 12.18 5.10299C11.6325 4.80701 11.0235 4.64277 10.4015 4.6233C9.07449 4.48402 7.78805 5.41734 7.11185 5.41734C6.42256 5.41734 5.38144 4.63713 4.26033 4.6602C3.53516 4.68363 2.82843 4.8945 2.209 5.27227C1.58956 5.65004 1.07854 6.18183 0.725734 6.81582C-0.802555 9.46181 0.33741 13.3505 1.80138 15.4894C2.53384 16.5367 3.38987 17.7066 4.50997 17.6651C5.60605 17.6196 6.01542 16.9661 7.33849 16.9661C8.64928 16.9661 9.03335 17.6651 10.1762 17.6387C11.3523 17.6196 12.0934 16.5867 12.8001 15.5295C13.3264 14.7832 13.7313 13.9585 14 13.0857C13.3167 12.7967 12.7336 12.3129 12.3233 11.6948C11.9131 11.0766 11.694 10.3513 11.6932 9.60939Z" fill="#101828"/>
<path d="M9.53455 3.21661C10.1758 2.44677 10.4918 1.45728 10.4153 0.458252C9.43553 0.561155 8.53052 1.02941 7.88057 1.76971C7.56279 2.13137 7.31941 2.55211 7.16433 3.00789C7.00925 3.46366 6.94552 3.94553 6.97679 4.42595C7.46684 4.431 7.95164 4.32478 8.39469 4.1153C8.83774 3.90583 9.22748 3.59855 9.53455 3.21661Z" fill="#101828"/>
</svg>
