<svg width="14" height="18" viewBox="0 0 14 18" fill="none" xmlns="http://www.w3.org/2000/svg">
<path d="M11.6932 9.60933C11.7017 8.94977 11.8768 8.30307 12.2024 7.7294C12.528 7.15574 12.9934 6.67375 13.5554 6.32829C13.1984 5.81847 12.7275 5.39891 12.18 5.10293C11.6325 4.80695 11.0235 4.6427 10.4015 4.62324C9.07449 4.48396 7.78805 5.41728 7.11185 5.41728C6.42256 5.41728 5.38144 4.63707 4.26033 4.66014C3.53516 4.68357 2.82843 4.89444 2.209 5.27221C1.58956 5.64998 1.07854 6.18177 0.725734 6.81576C-0.802555 9.46175 0.33741 13.3505 1.80138 15.4893C2.53384 16.5366 3.38987 17.7065 4.50997 17.665C5.60605 17.6195 6.01542 16.9661 7.33849 16.9661C8.64928 16.9661 9.03335 17.665 10.1762 17.6386C11.3523 17.6195 12.0934 16.5867 12.8001 15.5294C13.3264 14.7832 13.7313 13.9584 14 13.0857C13.3167 12.7966 12.7336 12.3129 12.3233 11.6947C11.9131 11.0765 11.694 10.3512 11.6932 9.60933Z" fill="white"/>
<path d="M9.53455 3.21661C10.1758 2.44677 10.4918 1.45728 10.4153 0.458252C9.43553 0.561155 8.53052 1.02941 7.88057 1.76971C7.56279 2.13137 7.31941 2.55211 7.16433 3.00789C7.00925 3.46366 6.94552 3.94553 6.97679 4.42595C7.46684 4.431 7.95164 4.32478 8.39469 4.1153C8.83774 3.90583 9.22748 3.59855 9.53455 3.21661Z" fill="white"/>
</svg>
