<svg width="167" height="53" viewBox="0 0 167 53" fill="none" xmlns="http://www.w3.org/2000/svg">
<path d="M26.1937 52.3874C40.6601 52.3874 52.3874 40.6601 52.3874 26.1937C52.3874 11.7273 40.6601 0 26.1937 0C11.7273 0 0 11.7273 0 26.1937C0 40.6601 11.7273 52.3874 26.1937 52.3874Z" fill="#4E2553"/>
<path d="M30.4298 37.4273C29.8917 35.9387 29.3749 34.4832 29.2208 32.8523C28.7349 27.7298 23.2709 24.1812 18.1223 25.5228C14.8439 26.3762 12.2174 28.2726 10.0461 30.8114C7.3319 33.9854 5.45923 37.387 4.58215 41.0186C9.29465 47.8859 17.1978 52.3921 26.1558 52.3921C27.7369 52.3921 29.2848 52.2523 30.7877 51.982C29.2042 47.4995 27.6208 43.0146 26.0302 38.5107C27.5852 38.4632 29.0857 38.4182 30.7142 38.3708C30.5933 37.9654 30.527 37.6905 30.4321 37.4273H30.4298Z" fill="#ED7F74"/>
<path d="M44.0623 45.3425C42.0569 38.7431 40.0515 32.1389 38.0366 25.5016C39.5987 25.5253 41.104 25.5467 42.7372 25.5704C42.6353 25.1579 42.5808 24.8806 42.4978 24.6103C42.0261 23.0932 41.571 21.6141 41.4904 19.969C41.2344 14.8132 35.915 11.0109 30.6929 12.1251C27.3695 12.8338 24.6505 14.6164 22.3607 17.0651C16.7616 23.0506 14.3461 30.0458 16.2804 38.1362C17.8188 44.5744 21.6069 49.2632 27.1229 52.3685C33.6631 52.141 39.594 49.5145 44.0623 45.3425Z" fill="white"/>
<path d="M30.5388 37.4582C29.9983 35.9625 29.4792 34.5023 29.3227 32.8619C28.8368 27.718 23.3468 24.1528 18.1744 25.4992C17.6979 25.6225 17.2357 25.7718 16.7853 25.9401C15.4721 29.6902 15.2421 33.7484 16.2899 38.1243C17.8283 44.5649 21.6187 49.2584 27.1348 52.3661C28.403 52.3211 29.6498 52.1883 30.8659 51.9702C29.3251 47.5422 27.8578 43.1853 26.2743 38.7027C27.8364 38.6553 29.2848 38.6245 30.9204 38.5771C30.7995 38.1694 30.636 37.7237 30.5388 37.4582Z" fill="#4E2553"/>
<path d="M34.4145 20.981C35.399 20.981 36.1971 20.1829 36.1971 19.1984C36.1971 18.2139 35.399 17.4158 34.4145 17.4158C33.43 17.4158 32.6319 18.2139 32.6319 19.1984C32.6319 20.1829 33.43 20.981 34.4145 20.981Z" fill="white"/>
<path d="M32.6604 18.7861H36.1711C36.0241 17.947 35.2964 17.3093 34.4169 17.3093C33.5375 17.3093 32.8074 17.947 32.6628 18.7861H32.6604Z" fill="#ED7F74"/>
<path d="M22.5574 34.3884C23.5419 34.3884 24.34 33.5903 24.34 32.6058C24.34 31.6213 23.5419 30.8232 22.5574 30.8232C21.5729 30.8232 20.7748 31.6213 20.7748 32.6058C20.7748 33.5903 21.5729 34.3884 22.5574 34.3884Z" fill="white"/>
<path d="M20.8032 32.1934H24.3139C24.1669 31.3542 23.4392 30.7166 22.5597 30.7166C21.6803 30.7166 20.9502 31.3542 20.8056 32.1934H20.8032Z" fill="#ED7F74"/>
<path d="M38.0366 25.5015C35.3817 29.3416 34.6018 35.4029 36.4342 40.1913C39.4589 48.0992 48.6397 52.0365 56 49.8509L38.0366 25.5015Z" fill="#45478E"/>
<path d="M38.0366 25.5015C35.8652 29.472 34.9644 34.2604 36.7944 39.0487C39.8192 46.9566 47.9973 51.1997 55.3576 49.0165L38.0366 25.5015Z" fill="#ED7F74"/>
<path d="M78.1261 34.577V38.7231H75.9525C74.1087 38.7231 72.6771 38.2679 71.6513 37.3542C70.6255 36.4438 70.1143 34.9332 70.1143 32.8255V27.0434H68V22.9797H70.1143V19.114H74.9366V22.9797H78.0964V27.0434H74.9366V32.9113C74.9366 33.5314 75.0652 33.9635 75.3159 34.2075C75.5665 34.4516 75.9986 34.5737 76.599 34.5737H78.1228L78.1261 34.577Z" fill="#ED7F74"/>
<path d="M81.1738 16.7359C81.7016 16.2576 82.3975 16.0168 83.2617 16.0168C84.1259 16.0168 84.8219 16.2576 85.3496 16.7359C85.8773 17.2142 86.1379 17.8211 86.1379 18.5566C86.1379 19.2922 85.8741 19.8694 85.3496 20.3477C84.8219 20.8259 84.1259 21.0667 83.2617 21.0667C82.3975 21.0667 81.7016 20.8259 81.1738 20.3477C80.6461 19.8694 80.3822 19.2724 80.3822 18.5566C80.3822 17.8409 80.6461 17.2175 81.1738 16.7359ZM85.6597 22.9831V38.7231H80.8374V22.9831H85.6597Z" fill="#ED7F74"/>
<path d="M96.1354 23.6592C97.0854 23.0952 98.1145 22.8115 99.2228 22.8115V27.9735H97.8407C96.5609 27.9735 95.5714 28.2473 94.8656 28.7915C94.1597 29.3358 93.8068 30.2593 93.8068 31.5556V38.7198H88.9845V22.9797H93.8068V25.9417C94.4071 24.9819 95.1855 24.2199 96.1354 23.6559V23.6592Z" fill="#ED7F74"/>
<path d="M101.594 16.7359C102.122 16.2576 102.818 16.0168 103.682 16.0168C104.546 16.0168 105.242 16.2576 105.77 16.7359C106.298 17.2142 106.558 17.8211 106.558 18.5566C106.558 19.2922 106.294 19.8694 105.77 20.3477C105.242 20.8259 104.546 21.0667 103.682 21.0667C102.818 21.0667 102.122 20.8259 101.594 20.3477C101.066 19.8694 100.803 19.2724 100.803 18.5566C100.803 17.8409 101.066 17.2175 101.594 16.7359ZM106.08 22.9831V38.7231H101.258V22.9831H106.08Z" fill="#ED7F74"/>
<path d="M135.618 24.5895C136.726 25.7835 137.283 27.4426 137.283 29.5668V38.7067H132.487V30.1308C132.487 29.1347 132.22 28.3596 131.683 27.8054C131.148 27.2513 130.419 26.9743 129.496 26.9743C128.572 26.9743 127.78 27.2711 127.226 27.8615C126.672 28.4552 126.395 29.2864 126.395 30.3584V38.7067H121.573V30.1308C121.573 29.1347 121.309 28.3596 120.785 27.8054C120.257 27.2513 119.534 26.9743 118.614 26.9743C117.694 26.9743 116.892 27.2645 116.328 27.8483C115.764 28.4321 115.481 29.2699 115.481 30.3584V38.7067H110.658V22.9667H115.481V25.645C115.893 24.761 116.53 24.0651 117.384 23.5571C118.238 23.0491 119.241 22.7952 120.389 22.7952C121.537 22.7952 122.655 23.0722 123.575 23.6264C124.495 24.1805 125.191 24.9754 125.663 26.0111C126.207 25.0348 126.956 24.2531 127.906 23.6692C128.856 23.0854 129.905 22.7952 131.053 22.7952C132.989 22.7952 134.513 23.3922 135.621 24.5862L135.618 24.5895Z" fill="white"/>
<path d="M140.836 16.7195C141.363 16.2413 142.059 16.0005 142.924 16.0005C143.788 16.0005 144.484 16.2413 145.011 16.7195C145.539 17.1978 145.8 17.8047 145.8 18.5403C145.8 19.2758 145.536 19.853 145.011 20.3313C144.484 20.8096 143.788 21.0504 142.924 21.0504C142.059 21.0504 141.363 20.8096 140.836 20.3313C140.308 19.853 140.044 19.256 140.044 18.5403C140.044 17.8245 140.308 17.2011 140.836 16.7195ZM145.321 22.9667V38.7067H140.499V22.9667H145.321Z" fill="white"/>
<path d="M155.8 23.646C156.75 23.082 157.779 22.7983 158.888 22.7983V27.9603H157.506C156.226 27.9603 155.236 28.2341 154.531 28.7783C153.825 29.3226 153.472 30.2461 153.472 31.5424V38.7066H148.649V22.9666H153.472V25.9285C154.072 24.9687 154.85 24.2068 155.8 23.6427V23.646Z" fill="white"/>
<path d="M161.256 16.7195C161.784 16.2413 162.48 16.0005 163.344 16.0005C164.208 16.0005 164.904 16.2413 165.432 16.7195C165.96 17.1978 166.22 17.8047 166.22 18.5403C166.22 19.2758 165.956 19.853 165.432 20.3313C164.904 20.8096 164.208 21.0504 163.344 21.0504C162.48 21.0504 161.784 20.8096 161.256 20.3313C160.728 19.853 160.464 19.256 160.464 18.5403C160.464 17.8245 160.728 17.2011 161.256 16.7195ZM165.742 22.9667V38.7067H160.92V22.9667H165.742Z" fill="white"/>
</svg>
