<svg width="167" height="53" viewBox="0 0 167 53" fill="none" xmlns="http://www.w3.org/2000/svg">
<path d="M26.1937 52.3874C40.6601 52.3874 52.3874 40.6601 52.3874 26.1937C52.3874 11.7273 40.6601 0 26.1937 0C11.7273 0 0 11.7273 0 26.1937C0 40.6601 11.7273 52.3874 26.1937 52.3874Z" fill="#4E2553"/>
<path d="M30.4298 37.4274C29.8917 35.9388 29.3749 34.4833 29.2208 32.8524C28.7349 27.7298 23.2709 24.1812 18.1223 25.5229C14.8439 26.3763 12.2174 28.2727 10.0461 30.8114C7.3319 33.9855 5.45923 37.3871 4.58215 41.0187C9.29465 47.8859 17.1978 52.3922 26.1558 52.3922C27.7369 52.3922 29.2848 52.2523 30.7877 51.9821C29.2042 47.4996 27.6208 43.0146 26.0302 38.5107C27.5852 38.4633 29.0857 38.4183 30.7142 38.3709C30.5933 37.9655 30.527 37.6905 30.4321 37.4274H30.4298Z" fill="#ED7F74"/>
<path d="M44.0623 45.3424C42.0569 38.743 40.0515 32.1389 38.0366 25.5016C39.5987 25.5253 41.104 25.5466 42.7372 25.5703C42.6353 25.1579 42.5808 24.8805 42.4978 24.6103C42.0261 23.0932 41.571 21.614 41.4904 19.9689C41.2344 14.8131 35.915 11.0109 30.6929 12.125C27.3695 12.8338 24.6505 14.6164 22.3607 17.0651C16.7616 23.0505 14.3461 30.0458 16.2804 38.1362C17.8188 44.5744 21.6069 49.2632 27.1229 52.3685C33.6631 52.1409 39.594 49.5144 44.0623 45.3424Z" fill="#5750A1"/>
<path d="M30.5388 37.4582C29.9983 35.9625 29.4792 34.5023 29.3227 32.8619C28.8368 27.718 23.3467 24.1528 18.1744 25.4992C17.6979 25.6225 17.2357 25.7718 16.7853 25.9401C15.472 29.6902 15.2421 33.7485 16.2899 38.1243C17.8283 44.5649 21.6187 49.2584 27.1348 52.3661C28.403 52.3211 29.6498 52.1883 30.8659 51.9703C29.3251 47.5422 27.8578 43.1853 26.2743 38.7027C27.8364 38.6553 29.2848 38.6245 30.9204 38.5771C30.7995 38.1694 30.6359 37.7237 30.5388 37.4582Z" fill="#4E2553"/>
<path d="M34.4145 20.9811C35.399 20.9811 36.1971 20.183 36.1971 19.1985C36.1971 18.214 35.399 17.4159 34.4145 17.4159C33.43 17.4159 32.6319 18.214 32.6319 19.1985C32.6319 20.183 33.43 20.9811 34.4145 20.9811Z" fill="white"/>
<path d="M32.6604 18.786H36.171C36.0241 17.9469 35.2963 17.3092 34.4169 17.3092C33.5374 17.3092 32.8073 17.9469 32.6627 18.786H32.6604Z" fill="#ED7F74"/>
<path d="M22.5574 34.3885C23.5419 34.3885 24.34 33.5904 24.34 32.6059C24.34 31.6214 23.5419 30.8233 22.5574 30.8233C21.5729 30.8233 20.7748 31.6214 20.7748 32.6059C20.7748 33.5904 21.5729 34.3885 22.5574 34.3885Z" fill="white"/>
<path d="M20.8032 32.1934H24.3139C24.1669 31.3543 23.4392 30.7166 22.5598 30.7166C21.6803 30.7166 20.9502 31.3543 20.8056 32.1934H20.8032Z" fill="#ED7F74"/>
<path d="M38.0366 25.5016C35.3817 29.3417 34.6018 35.403 36.4341 40.1914C39.4589 48.0993 48.6397 52.0366 56 49.851L38.0366 25.5016Z" fill="#45478E"/>
<path d="M38.0366 25.5016C35.8652 29.4721 34.9644 34.2605 36.7944 39.0488C39.8191 46.9567 47.9973 51.1998 55.3576 49.0166L38.0366 25.5016Z" fill="#ED7F74"/>
<path d="M78.1261 34.5769V38.723H75.9524C74.1086 38.723 72.6771 38.2678 71.6513 37.3542C70.6255 36.4438 70.1142 34.9332 70.1142 32.8255V27.0434H68V22.9797H70.1142V19.114H74.9365V22.9797H78.0964V27.0434H74.9365V32.9112C74.9365 33.5313 75.0652 33.9634 75.3158 34.2075C75.5665 34.4516 75.9986 34.5736 76.5989 34.5736H78.1228L78.1261 34.5769Z" fill="#ED7F74"/>
<path d="M81.1738 16.7358C81.7016 16.2575 82.3975 16.0167 83.2617 16.0167C84.1259 16.0167 84.8219 16.2575 85.3496 16.7358C85.8774 17.2141 86.1379 17.821 86.1379 18.5565C86.1379 19.2921 85.8741 19.8693 85.3496 20.3476C84.8219 20.8258 84.1259 21.0666 83.2617 21.0666C82.3975 21.0666 81.7016 20.8258 81.1738 20.3476C80.6461 19.8693 80.3822 19.2723 80.3822 18.5565C80.3822 17.8408 80.6461 17.2174 81.1738 16.7358ZM85.6597 22.983V38.723H80.8374V22.983H85.6597Z" fill="#ED7F74"/>
<path d="M96.1354 23.6592C97.0854 23.0952 98.1145 22.8115 99.2227 22.8115V27.9735H97.8407C96.5609 27.9735 95.5714 28.2473 94.8655 28.7915C94.1597 29.3357 93.8068 30.2593 93.8068 31.5556V38.7197H88.9845V22.9797H93.8068V25.9417C94.4071 24.9819 95.1855 24.2199 96.1354 23.6559V23.6592Z" fill="#ED7F74"/>
<path d="M101.594 16.7358C102.122 16.2575 102.818 16.0167 103.682 16.0167C104.546 16.0167 105.242 16.2575 105.77 16.7358C106.298 17.2141 106.558 17.821 106.558 18.5565C106.558 19.2921 106.294 19.8693 105.77 20.3476C105.242 20.8258 104.546 21.0666 103.682 21.0666C102.818 21.0666 102.122 20.8258 101.594 20.3476C101.067 19.8693 100.803 19.2723 100.803 18.5565C100.803 17.8408 101.067 17.2174 101.594 16.7358ZM106.08 22.983V38.723H101.258V22.983H106.08Z" fill="#ED7F74"/>
<path d="M135.617 24.5894C136.726 25.7834 137.283 27.4425 137.283 29.5667V38.7065H132.487V30.1307C132.487 29.1346 132.22 28.3594 131.682 27.8053C131.148 27.2512 130.419 26.9741 129.496 26.9741C128.572 26.9741 127.78 27.271 127.226 27.8614C126.672 28.4551 126.395 29.2863 126.395 30.3583V38.7065H121.573V30.1307C121.573 29.1346 121.309 28.3594 120.785 27.8053C120.257 27.2512 119.534 26.9741 118.614 26.9741C117.694 26.9741 116.892 27.2644 116.328 27.8482C115.764 28.432 115.481 29.2698 115.481 30.3583V38.7065H110.658V22.9665H115.481V25.6448C115.893 24.7609 116.53 24.0649 117.384 23.557C118.238 23.049 119.241 22.795 120.389 22.795C121.537 22.795 122.655 23.0721 123.575 23.6262C124.495 24.1804 125.191 24.9753 125.663 26.011C126.207 25.0346 126.956 24.2529 127.906 23.6691C128.856 23.0853 129.905 22.795 131.052 22.795C132.989 22.795 134.513 23.392 135.621 24.5861L135.617 24.5894Z" fill="#5750A1"/>
<path d="M140.836 16.7193C141.363 16.2411 142.059 16.0003 142.923 16.0003C143.788 16.0003 144.484 16.2411 145.011 16.7193C145.539 17.1976 145.8 17.8045 145.8 18.5401C145.8 19.2756 145.536 19.8528 145.011 20.3311C144.484 20.8094 143.788 21.0501 142.923 21.0501C142.059 21.0501 141.363 20.8094 140.836 20.3311C140.308 19.8528 140.044 19.2558 140.044 18.5401C140.044 17.8243 140.308 17.2009 140.836 16.7193ZM145.321 22.9665V38.7065H140.499V22.9665H145.321Z" fill="#5750A1"/>
<path d="M155.8 23.6459C156.75 23.0819 157.779 22.7982 158.888 22.7982V27.9603H157.506C156.226 27.9603 155.236 28.234 154.531 28.7783C153.825 29.3225 153.472 30.246 153.472 31.5423V38.7065H148.649V22.9665H153.472V25.9284C154.072 24.9686 154.85 24.2067 155.8 23.6426V23.6459Z" fill="#5750A1"/>
<path d="M161.256 16.7193C161.784 16.2411 162.48 16.0003 163.344 16.0003C164.208 16.0003 164.904 16.2411 165.432 16.7193C165.96 17.1976 166.22 17.8045 166.22 18.5401C166.22 19.2756 165.956 19.8528 165.432 20.3311C164.904 20.8094 164.208 21.0501 163.344 21.0501C162.48 21.0501 161.784 20.8094 161.256 20.3311C160.728 19.8528 160.464 19.2558 160.464 18.5401C160.464 17.8243 160.728 17.2009 161.256 16.7193ZM165.742 22.9665V38.7065H160.92V22.9665H165.742Z" fill="#5750A1"/>
</svg>
